<svg xmlns="http://www.w3.org/2000/svg" xmlns:xlink="http://www.w3.org/1999/xlink" contentStyleType="text/css" data-diagram-type="DESCRIPTION" height="502px" preserveAspectRatio="none" style="width:689px;height:502px;background:#FFFFFF;" version="1.1" viewBox="0 0 689 502" width="689px" zoomAndPan="magnify"><defs/><g><!--cluster Dashboard Financeiro--><g class="cluster" data-entity="Dashboard Financeiro" data-source-line="6" data-uid="ent0003" id="cluster_Dashboard Financeiro"><rect fill="none" height="398" rx="2.5" ry="2.5" style="stroke:#181818;stroke-width:1;" width="676" x="7" y="7"/><text fill="#000000" font-family="sans-serif" font-size="14" font-weight="bold" lengthAdjust="spacing" textLength="173.1133" x="258.4434" y="21.9951">Dashboard Financeiro</text></g><!--entity UC1--><g class="entity" data-entity="UC1" data-source-line="7" data-uid="ent0004" id="entity_UC1"><ellipse cx="128.7374" cy="138.0475" fill="#F1F1F1" rx="73.2374" ry="17.0475" style="stroke:#181818;stroke-width:0.5;"/><text fill="#000000" font-family="sans-serif" font-size="14" lengthAdjust="spacing" textLength="114.4268" x="71.5241" y="142.6959">Cadastrar Conta</text></g><!--entity UC2--><g class="entity" data-entity="UC2" data-source-line="8" data-uid="ent0005" id="entity_UC2"><ellipse cx="594.1444" cy="125.0236" fill="#F1F1F1" rx="60.1444" ry="14.5236" style="stroke:#181818;stroke-width:0.5;"/><text fill="#000000" font-family="sans-serif" font-size="14" lengthAdjust="spacing" textLength="80.8145" x="553.7372" y="129.6721">Fazer Login</text></g><!--entity UC3--><g class="entity" data-entity="UC3" data-source-line="9" data-uid="ent0006" id="entity_UC3"><ellipse cx="128.3885" cy="63.9777" fill="#F1F1F1" rx="95.3885" ry="21.4777" style="stroke:#181818;stroke-width:0.5;"/><text fill="#000000" font-family="sans-serif" font-size="14" lengthAdjust="spacing" textLength="165.8398" x="45.4686" y="68.6261">Preencher Dados Demo</text></g><!--entity UC4--><g class="entity" data-entity="UC4" data-source-line="10" data-uid="ent0007" id="entity_UC4"><ellipse cx="128.6173" cy="209.9235" fill="#F1F1F1" rx="87.6173" ry="19.9235" style="stroke:#181818;stroke-width:0.5;"/><text fill="#000000" font-family="sans-serif" font-size="14" lengthAdjust="spacing" textLength="148.3262" x="54.4542" y="214.5719">Visualizar Dashboard</text></g><!--entity UC5--><g class="entity" data-entity="UC5" data-source-line="11" data-uid="ent0008" id="entity_UC5"><ellipse cx="128.6194" cy="285.8239" fill="#F1F1F1" rx="89.6194" ry="20.3239" style="stroke:#181818;stroke-width:0.5;"/><text fill="#000000" font-family="sans-serif" font-size="14" lengthAdjust="spacing" textLength="152.8789" x="52.1799" y="290.4723">Gerenciar Transa&#231;&#245;es</text></g><!--entity UC6--><g class="entity" data-entity="UC6" data-source-line="12" data-uid="ent0009" id="entity_UC6"><ellipse cx="593.9148" cy="239.983" fill="#F1F1F1" rx="72.9148" ry="16.983" style="stroke:#181818;stroke-width:0.5;"/><text fill="#000000" font-family="sans-serif" font-size="14" lengthAdjust="spacing" textLength="113.6338" x="537.0979" y="244.6314">Criar Categorias</text></g><!--entity UC7--><g class="entity" data-entity="UC7" data-source-line="13" data-uid="ent0010" id="entity_UC7"><ellipse cx="128.7328" cy="365.0466" fill="#F1F1F1" rx="105.7328" ry="23.5466" style="stroke:#181818;stroke-width:0.5;"/><text fill="#000000" font-family="sans-serif" font-size="14" lengthAdjust="spacing" textLength="188.6172" x="34.4242" y="369.695">Alternar Tema (Light/Dark)</text></g><!--entity User--><g class="entity" data-entity="User" data-source-line="4" data-uid="ent0002" id="entity_User"><ellipse cx="594.1021" cy="429.5" fill="#F1F1F1" rx="8" ry="8" style="stroke:#181818;stroke-width:0.5;"/><path d="M594.1021,437.5 L594.1021,464.5 M581.1021,445.5 L607.1021,445.5 M594.1021,464.5 L581.1021,479.5 M594.1021,464.5 L607.1021,479.5" fill="none" style="stroke:#181818;stroke-width:0.5;"/><text fill="#000000" font-family="sans-serif" font-size="14" lengthAdjust="spacing" textLength="53.2041" x="567.5" y="493.9951">Usu&#225;rio</text></g><!--link UC1 to UC6--><g class="link" data-entity-1="UC1" data-entity-2="UC6" data-source-line="15" data-uid="lnk11" id="link_UC1_UC6"><path d="M201.53,139.28 C275.76,142.4 393.98,152.46 491,184 C519.63,193.31 544.4477,207.4826 564.4077,220.4426" fill="none" id="UC1-to-UC6" style="stroke:#181818;stroke-width:1;stroke-dasharray:7,7;"/><polygon fill="#181818" points="569.44,223.71,564.0699,215.454,565.2464,220.9871,559.7133,222.1637,569.44,223.71" style="stroke:#181818;stroke-width:1;"/><text fill="#000000" font-family="sans-serif" font-size="13" lengthAdjust="spacing" textLength="225.3926" x="265" y="140.0669">&#171;include&#187; (Cria categorias padr&#227;o)</text></g><!--link UC3 to UC2--><g class="link" data-entity-1="UC3" data-entity-2="UC2" data-source-line="16" data-uid="lnk12" id="link_UC3_UC2"><path d="M211.3,74.77 C306.42,87.28 454.6514,106.7866 534.8414,117.3466" fill="none" id="UC3-to-UC2" style="stroke:#181818;stroke-width:1;stroke-dasharray:7,7;"/><polygon fill="#181818" points="540.79,118.13,532.3893,112.9892,535.8328,117.4772,531.3448,120.9207,540.79,118.13" style="stroke:#181818;stroke-width:1;"/><text fill="#000000" font-family="sans-serif" font-size="13" lengthAdjust="spacing" textLength="61.1851" x="347" y="79.0669">&#171;extend&#187;</text></g><!--link UC4 to User--><g class="link" data-entity-1="UC4" data-entity-2="User" data-source-line="17" data-uid="lnk13" id="link_UC4_User"><path d="M192.86,223.59 C284.44,244.34 447.6,285.89 491,327 C517.97,352.54 498.6,375.37 521,405 C533.44,421.45 552.19,435.3 567.44,444.85" fill="none" id="UC4-User" style="stroke:#181818;stroke-width:1;"/></g><!--link UC5 to User--><g class="link" data-entity-1="UC5" data-entity-2="User" data-source-line="18" data-uid="lnk14" id="link_UC5_User"><path d="M198.82,298.77 C273.4,314.09 394.3,343.53 491,389 C518.79,402.07 547.36,422.38 567.17,437.76" fill="none" id="UC5-User" style="stroke:#181818;stroke-width:1;"/></g><!--link UC6 to User--><g class="link" data-entity-1="UC6" data-entity-2="User" data-source-line="19" data-uid="lnk15" id="link_UC6_User"><path d="M594,257.32 C594,311.85 594,366.39 594,420.93" fill="none" id="UC6-User" style="stroke:#181818;stroke-width:1;"/></g><!--link UC7 to User--><g class="link" data-entity-1="UC7" data-entity-2="User" data-source-line="20" data-uid="lnk16" id="link_UC7_User"><path d="M207.08,380.73 C313.51,402.32 499.35,440.01 567.23,453.77" fill="none" id="UC7-User" style="stroke:#181818;stroke-width:1;"/></g><!--link User to UC1--><g class="link" data-entity-1="User" data-entity-2="UC1" data-source-line="23" data-uid="lnk17" id="link_User_UC1"><path d="M567.17,445.95 C551.41,436.65 532.21,422.68 521,405 C485.53,349.05 535.33,308.22 491,259 C420.17,180.35 362.08,226.79 264,187 C250.19,181.4 247.79,177.66 234,172 C215.02,164.22 193.56,156.98 175.04,151.19" fill="none" id="User-UC1" style="stroke:#181818;stroke-width:1;"/></g><!--link User to UC2--><g class="link" data-entity-1="User" data-entity-2="UC2" data-source-line="24" data-uid="lnk18" id="link_User_UC2"><path d="M567.41,459.36 C519.99,458.36 421.68,448.61 377.5,387.5 C334.54,328.07 337.69,284.09 377.5,222.5 C413.53,166.76 489.87,142.57 541.57,132.29" fill="none" id="User-UC2" style="stroke:#181818;stroke-width:1;"/></g><!--SRC=[NP7FIWCn4CRlUOgXf-wX5ViNf2p8BlNIWw3rFYRZDdIRb4aMjEB3Y0UVm2VO5pFfhkrQ26I-VB-PJ38blNZm5bWN6mzACqclhH5kgyqU6NUmHxd5WXxyMqaGRJH5IKAWz9QXjtPL_SdQzW0Th1sn42S8UZcwpRD5Lh3K1eqapO5y5m2L8uak81agT9wH8RF6OrCdk-uYIpmGmyeMshJsg6lVCv6Hcu3agAo3d7PjEzcuoprfLs6f3nZ1jg-MctIvE-9GJmViaT4uhB_h7t8jEVtNEqSgGq-53U4VC-iojwKdDh4OxH3wg_ZHLpdoDcdfUQ33weT79p0SfZ6Q9N03YuKsigmKfU4iNWNoT5COY-BwooPDvlYKEMeowTMJKMdQs9C41eDcEaSzlT2p2pq_wmyXudxKOIhdUFGB]--></g></svg>